<svg xmlns="http://www.w3.org/2000/svg" viewBox="0 0 980 760" role="img" aria-labelledby="t d"><title id="t">Nexora creator business artwork</title><desc id="d">Stylized creator in a pink hoodie holding a phone, surrounded by social platform and creator-business interface cards.</desc><defs><linearGradient id="bg" x1="0" y1="0" x2="1" y2="1"><stop stop-color="#170914"/><stop offset=".48" stop-color="#4f102c"/><stop offset="1" stop-color="#190810"/></linearGradient><linearGradient id="hood" x1="0" y1="0" x2="1" y2="1"><stop stop-color="#ff8fba"/><stop offset=".55" stop-color="#f24f91"/><stop offset="1" stop-color="#ac245c"/></linearGradient><linearGradient id="card" x1="0" y1="0" x2="1" y2="1"><stop stop-color="#b52f6b"/><stop offset="1" stop-color="#5b1739"/></linearGradient><radialGradient id="glow"><stop stop-color="#ff3d9a" stop-opacity=".8"/><stop offset="1" stop-color="#ff3d9a" stop-opacity="0"/></radialGradient><filter id="blur"><feGaussianBlur stdDeviation="30"/></filter><filter id="shadow"><feDropShadow dx="0" dy="20" stdDeviation="22" flood-color="#13030b" flood-opacity=".55"/></filter></defs><rect width="980" height="760" rx="42" fill="url(#bg)"/><circle cx="620" cy="330" r="310" fill="url(#glow)" opacity=".55"/><circle cx="820" cy="650" r="240" fill="#8d1e58" opacity=".18" filter="url(#blur)"/><path d="M95 680 C300 540 500 790 890 600" fill="none" stroke="#ff4ba2" stroke-opacity=".38" stroke-width="3"/><g filter="url(#shadow)"><path d="M430 580c28-150 86-238 185-249 121-13 204 87 220 249z" fill="url(#hood)"/><ellipse cx="632" cy="250" rx="92" ry="110" fill="#dda08f"/><path d="M540 232c8-114 78-177 153-143 53 23 66 85 47 145-5-51-50-78-102-75-44 3-71 28-98 73z" fill="#2d151e"/><path d="M571 165c-16-47 15-92 61-99 61-9 105 38 104 95-25-34-68-44-102-29-34 14-40 27-63 33z" fill="#261019"/><path d="M594 264c18 15 46 14 64-1" stroke="#94565b" stroke-width="5" stroke-linecap="round" fill="none"/><path d="M555 236c17-8 34-8 48 0M665 235c18-8 33-6 47 2" stroke="#522b31" stroke-width="5" stroke-linecap="round"/><path d="M520 470c55 25 73 61 97 111M777 461c-57 23-82 63-94 115" stroke="#d84d85" stroke-width="42" stroke-linecap="round"/><rect x="566" y="395" width="134" height="220" rx="28" fill="#191016" stroke="#f598b7" stroke-width="4"/><rect x="579" y="416" width="108" height="154" rx="18" fill="#291222"/><circle cx="633" cy="490" r="34" fill="#ff3d96"/><text x="633" y="503" text-anchor="middle" font-family="Arial,sans-serif" font-size="34" font-weight="700" fill="#fff">N</text></g><g filter="url(#shadow)"><rect x="720" y="120" width="205" height="138" rx="22" fill="url(#card)" stroke="#ff7eb2" stroke-opacity=".75"/><text x="744" y="152" fill="#ffd9e7" font-family="Arial" font-size="14">DEMO TRACKER</text><text x="744" y="193" fill="#fff" font-family="Arial" font-size="35" font-weight="700">Income mix</text><path d="M744 228 C780 190 817 246 851 205 S899 212 913 178" fill="none" stroke="#ffb1d0" stroke-width="4"/></g><g font-family="Arial" font-weight="700" text-anchor="middle"><g transform="translate(170 160)"><rect width="104" height="104" rx="27" fill="#311120" stroke="#ff67aa"/><text x="52" y="67" fill="#fff" font-size="32">TikTok</text></g><g transform="translate(210 420)"><rect width="104" height="104" rx="27" fill="#401326" stroke="#ff67aa"/><text x="52" y="67" fill="#fff" font-size="24">IG</text></g><g transform="translate(790 380)"><rect width="104" height="104" rx="27" fill="#401326" stroke="#ff67aa"/><text x="52" y="67" fill="#fff" font-size="22">YT</text></g><g transform="translate(115 545)"><rect width="145" height="92" rx="24" fill="#531734" stroke="#ff67aa"/><text x="72" y="39" fill="#ffd5e5" font-size="15">DIGITAL</text><text x="72" y="63" fill="#fff" font-size="17">PRODUCTS</text></g></g><g fill="#ff8fbc"><circle cx="104" cy="106" r="3"/><circle cx="350" cy="88" r="4"/><circle cx="878" cy="95" r="3"/><circle cx="910" cy="312" r="4"/><circle cx="332" cy="640" r="3"/></g></svg>